<?xml version="1.0" encoding="UTF-8"?>
<svg xmlns="http://www.w3.org/2000/svg" xmlns:xlink="http://www.w3.org/1999/xlink" width="900" height="360" viewBox="0,0,900,360" style="max-width: 100%; height: auto; height: intrinsic;"><g transform="translate(0,330)" font-size="20" fill="none" font-family="sans-serif" text-anchor="middle"><path class="domain" stroke="currentColor" d="M30.5,0.5H870.5"></path><g class="tick" opacity="1" transform="translate(30.5,0)"><line stroke="currentColor" y2="6"></line><text fill="currentColor" y="9" dy="0.71em">2007</text></g><g class="tick" opacity="1" transform="translate(150.5,0)"><line stroke="currentColor" y2="6"></line><text fill="currentColor" y="9" dy="0.71em">2009</text></g><g class="tick" opacity="1" transform="translate(270.5,0)"><line stroke="currentColor" y2="6"></line><text fill="currentColor" y="9" dy="0.71em">2011</text></g><g class="tick" opacity="1" transform="translate(390.5,0)"><line stroke="currentColor" y2="6"></line><text fill="currentColor" y="9" dy="0.71em">2013</text></g><g class="tick" opacity="1" transform="translate(510.49999999999994,0)"><line stroke="currentColor" y2="6"></line><text fill="currentColor" y="9" dy="0.71em">2015</text></g><g class="tick" opacity="1" transform="translate(630.5,0)"><line stroke="currentColor" y2="6"></line><text fill="currentColor" y="9" dy="0.71em">2017</text></g><g class="tick" opacity="1" transform="translate(750.5,0)"><line stroke="currentColor" y2="6"></line><text fill="currentColor" y="9" dy="0.71em">2019</text></g><g class="tick" opacity="1" transform="translate(870.5,0)"><line stroke="currentColor" y2="6"></line><text fill="currentColor" y="9" dy="0.71em">2021</text></g></g><path fill="none" stroke="#813bb0" stroke-width="3" stroke-linecap="round" stroke-linejoin="round" stroke-opacity="1" d="M30,233.52857689939088L90,203.843980893774L150,198.52950952169718L210,199.29046298119707L270,173.91824975427687L330,184.00710239465712L390,175.5755307164809L450,183.3737189224432L509.99999999999994,201.75136357936972L570,187.7897347304362L630,198.64221729152155L690,197.27786692946597L750,186.13418672193745L810,141.71941313470177L870,92.86565503789345"></path><g font-family="sans-serif" font-size="20" text-anchor="middle"><text dy="-14" x="30" y="233.52857689939088">19%</text><text dy="-14" x="150" y="198.52950952169718">25%</text><text dy="-14" x="270" y="173.91824975427687">30%</text><text dy="-14" x="390" y="175.5755307164809">30%</text><text dy="-14" x="509.99999999999994" y="201.75136357936972">25%</text><text dy="-14" x="630" y="198.64221729152155">25%</text><text dy="-14" x="750" y="186.13418672193745">28%</text><text dy="-14" x="870" y="92.86565503789345">46%</text></g></svg>