<?xml version="1.0" encoding="UTF-8"?>
<svg xmlns="http://www.w3.org/2000/svg" xmlns:xlink="http://www.w3.org/1999/xlink" width="900" height="360" viewBox="0,0,900,360" style="max-width: 100%; height: auto; height: intrinsic;"><g transform="translate(0,330)" font-size="20" fill="none" font-family="sans-serif" text-anchor="middle"><path class="domain" stroke="currentColor" d="M30.5,0.5H870.5"></path><g class="tick" opacity="1" transform="translate(30.5,0)"><line stroke="currentColor" y2="6"></line><text fill="currentColor" y="9" dy="0.71em">2007</text></g><g class="tick" opacity="1" transform="translate(150.5,0)"><line stroke="currentColor" y2="6"></line><text fill="currentColor" y="9" dy="0.71em">2009</text></g><g class="tick" opacity="1" transform="translate(270.5,0)"><line stroke="currentColor" y2="6"></line><text fill="currentColor" y="9" dy="0.71em">2011</text></g><g class="tick" opacity="1" transform="translate(390.5,0)"><line stroke="currentColor" y2="6"></line><text fill="currentColor" y="9" dy="0.71em">2013</text></g><g class="tick" opacity="1" transform="translate(510.49999999999994,0)"><line stroke="currentColor" y2="6"></line><text fill="currentColor" y="9" dy="0.71em">2015</text></g><g class="tick" opacity="1" transform="translate(630.5,0)"><line stroke="currentColor" y2="6"></line><text fill="currentColor" y="9" dy="0.71em">2017</text></g><g class="tick" opacity="1" transform="translate(750.5,0)"><line stroke="currentColor" y2="6"></line><text fill="currentColor" y="9" dy="0.71em">2019</text></g><g class="tick" opacity="1" transform="translate(870.5,0)"><line stroke="currentColor" y2="6"></line><text fill="currentColor" y="9" dy="0.71em">2021</text></g></g><path fill="none" stroke="#813bb0" stroke-width="3" stroke-linecap="round" stroke-linejoin="round" stroke-opacity="1" d="M30,218.4559700221427L90,187.96506854834647L150,184.31177273331883L210,168.87091895357884L270,154.45342279139317L330,165.47722113415824L390,150.12029580685373L450,148.24158469354995L509.99999999999994,185.41465819456616L570,165.31045927839472L630,179.99164822915782L690,173.22310395965172L750,145.9607611264709L810,133.38823273219066L870,124.13560346223233"></path><g font-family="sans-serif" font-size="20" text-anchor="middle"><text dy="-14" x="30" y="218.4559700221427">22%</text><text dy="-14" x="150" y="184.31177273331883">28%</text><text dy="-14" x="270" y="154.45342279139317">34%</text><text dy="-14" x="390" y="150.12029580685373">35%</text><text dy="-14" x="509.99999999999994" y="185.41465819456616">28%</text><text dy="-14" x="630" y="179.99164822915782">29%</text><text dy="-14" x="750" y="145.9607611264709">36%</text><text dy="-14" x="870" y="124.13560346223233">40%</text></g></svg>