<?xml version="1.0" encoding="UTF-8"?>
<svg xmlns="http://www.w3.org/2000/svg" xmlns:xlink="http://www.w3.org/1999/xlink" viewBox="0 0 24 24" width="24px" height="24px">
<g id="surface36980584">
<path style=" stroke:none;fill-rule:nonzero;fill:rgb(20.392157%,59.607846%,85.882354%);fill-opacity:1;" d="M 5 3 C 3.90625 3 3 3.90625 3 5 L 3 19 C 3 20.09375 3.90625 21 5 21 L 19 21 C 20.09375 21 21 20.09375 21 19 L 21 12 L 19 12 L 19 19 L 5 19 L 5 5 L 12 5 L 12 3 Z M 14 3 L 14 5 L 17.585938 5 L 8.292969 14.292969 L 9.707031 15.707031 L 19 6.414062 L 19 10 L 21 10 L 21 3 Z M 14 3 "/>
</g>
</svg>
